<?xml version="1.0" encoding="UTF-8"?>
<svg width="48px" height="48px" viewBox="0 0 48 48" version="1.1" xmlns="http://www.w3.org/2000/svg" xmlns:xlink="http://www.w3.org/1999/xlink">
    <title>icon_maxWin</title>
    <g id="icon_maxWin" stroke="none" stroke-width="1" fill="none" fill-rule="evenodd">
        <g id="窗口" transform="translate(3.000000, 3.000000)" fill="#000000" fill-rule="nonzero">
            <path d="M38.7076927,0 L3.29176419,0 C1.47670464,0 0,1.47757543 0,3.29382985 L0,38.7056265 C0,40.5218809 1.47670464,42 3.29176419,42 L38.7082358,42 C40.5232954,42 42,40.5218809 42,38.7056265 L42,3.29382985 C41.9994569,1.4770318 40.5227523,0 38.7076927,0 Z M36.4771572,3.74938842 C37.2559709,3.74938842 37.8870599,4.38162544 37.8870599,5.1611851 C37.8870599,5.94128839 37.2559709,6.57298179 36.4771572,6.57298179 C35.6972573,6.57298179 35.0661684,5.94074477 35.0661684,5.1611851 C35.0661684,4.38162544 35.6978004,3.74938842 36.4771572,3.74938842 Z M38.2379062,10.2353901 L38.2379062,38.2353901 L3.7615507,38.2353901 L3.7615507,10.2353901 L38.2379062,10.2353901 Z M31.4224716,3.74938842 C32.2023716,3.74938842 32.8334605,4.38162544 32.8334605,5.1611851 C32.8334605,5.94128839 32.2023716,6.57298179 31.4224716,6.57298179 C30.6436579,6.57298179 30.012569,5.94074477 30.012569,5.1611851 C30.0131121,4.38162544 30.6442011,3.74938842 31.4224716,3.74938842 Z" id="形状"></path>
        </g>
    </g>
</svg>